<?xml version="1.0" standalone="no"?>
<!DOCTYPE svg PUBLIC "-//W3C//DTD SVG 20010904//EN"
 "http://www.w3.org/TR/2001/REC-SVG-20010904/DTD/svg10.dtd">
<svg version="1.0" xmlns="http://www.w3.org/2000/svg"
 width="512.000000pt" height="512.000000pt" viewBox="0 0 512.000000 512.000000"
 preserveAspectRatio="xMidYMid meet">
<metadata>
Created by potrace 1.11, written by Peter Selinger 2001-2013
</metadata>
<g transform="translate(0.000000,512.000000) scale(0.100000,-0.100000)"
fill="#000000" stroke="none">
<path d="M1409 3999 c-115 -13 -111 -9 -750 -647 -673 -672 -654 -648 -654
-787 0 -150 -35 -107 634 -778 328 -329 615 -610 638 -624 192 -114 426 -13
477 206 16 68 1 160 -36 222 -13 22 -232 249 -488 504 l-463 464 466 465 c527
528 522 521 522 656 0 93 -23 158 -79 218 -69 75 -168 113 -267 101z"/>
<path d="M3615 3995 c-74 -18 -95 -29 -147 -74 -94 -83 -130 -219 -89 -336 11
-30 29 -67 41 -82 11 -16 226 -233 476 -484 l456 -456 -454 -454 c-249 -250
-465 -470 -479 -489 -74 -99 -74 -260 -2 -358 71 -95 149 -136 263 -136 138 1
114 -20 784 651 674 674 651 647 650 788 -1 139 25 108 -653 786 -568 568
-610 608 -662 627 -73 27 -122 31 -184 17z"/>
<path d="M2655 3971 c-68 -28 -101 -49 -133 -86 -36 -40 -72 -106 -72 -130 0
-9 -3 -14 -7 -12 -5 3 -8 -9 -9 -26 -1 -36 -15 -139 -20 -148 -1 -3 -12 -61
-24 -130 -26 -151 -28 -167 -35 -199 -7 -33 -10 -51 -91 -520 -13 -80 -29
-165 -34 -190 -5 -25 -12 -61 -15 -80 -2 -19 -7 -46 -9 -60 -14 -72 -47 -260
-52 -290 -3 -19 -7 -42 -9 -50 -3 -8 -7 -33 -10 -55 -6 -42 -22 -133 -30 -175
-3 -14 -14 -74 -25 -135 -11 -60 -22 -121 -25 -135 -3 -14 -6 -52 -6 -86 0
-218 207 -368 417 -303 111 34 202 143 218 259 8 55 15 100 21 120 2 8 7 31
10 50 3 19 28 161 55 315 27 154 52 296 55 315 5 33 28 160 95 535 17 94 33
186 36 205 3 19 11 69 19 110 8 41 16 89 19 105 3 17 21 125 42 240 43 246 45
274 26 340 -26 90 -88 162 -176 205 -59 28 -174 34 -231 11z"/>
</g>
</svg>
